<!-- https://materialdesignicons.com/ -->

<svg xmlns="http://www.w3.org/2000/svg">
  <svg >
    <symbol id="menu" viewBox="0 0 24 24">
      <path d="M3,6H21V8H3V6M3,11H21V13H3V11M3,16H21V18H3V16Z" />
    </symbol>

    <symbol id="right" viewBox="0 0 24 24">
      <path d="M8.59,16.58L13.17,12L8.59,7.41L10,6L16,12L10,18L8.59,16.58Z" />
    </symbol>

    <symbol id="info" viewBox="0 0 24 24">
      <path d="M11,9H13V7H11M12,20C7.59,20 4,16.41 4,12C4,7.59 7.59,4 12,4C16.41,4 20,7.59 20,12C20,16.41 16.41,20 12,20M12,2A10,10 0 0,0 2,12A10,10 0 0,0 12,22A10,10 0 0,0 22,12A10,10 0 0,0 12,2M11,17H13V11H11V17Z" />
    </symbol>

    <symbol id="left" viewBox="0 0 24 24">
      <path d="M15.41,16.58L10.83,12L15.41,7.41L14,6L8,12L14,18L15.41,16.58Z" />
    </symbol>

    <symbol id="mic" viewBox="0 0 24 24">
      <path d="M17.3,11C17.3,14 14.76,16.1 12,16.1C9.24,16.1 6.7,14 6.7,11H5C5,14.41 7.72,17.23 11,17.72V21H13V17.72C16.28,17.23 19,14.41 19,11M10.8,4.9C10.8,4.24 11.34,3.7 12,3.7C12.66,3.7 13.2,4.24 13.2,4.9L13.19,11.1C13.19,11.76 12.66,12.3 12,12.3C11.34,12.3 10.8,11.76 10.8,11.1M12,14A3,3 0 0,0 15,11V5A3,3 0 0,0 12,2A3,3 0 0,0 9,5V11A3,3 0 0,0 12,14Z" />
    </symbol>

    <symbol id="diamond" viewBox="0 0 24 24">
      <path d="M16,9H19L14,16M10,9H14L12,17M5,9H8L10,16M15,4H17L19,7H16M11,4H13L14,7H10M7,4H9L8,7H5M6,2L2,8L12,22L22,8L18,2H6Z" />
    </symbol>

    <symbol id="error" viewBox="0 0 24 24">
      <path d="M11,15H13V17H11V15M11,7H13V13H11V7M12,2C6.47,2 2,6.5 2,12A10,10 0 0,0 12,22A10,10 0 0,0 22,12A10,10 0 0,0 12,2M12,20A8,8 0 0,1 4,12A8,8 0 0,1 12,4A8,8 0 0,1 20,12A8,8 0 0,1 12,20Z" />
    </symbol>


  </svg>
</svg>
