<!-- https://materialdesignicons.com/ -->

<svg xmlns="http://www.w3.org/2000/svg">
  <svg >
    <symbol id="menu" viewBox="0 0 24 24">
      <path d="M3,6H21V8H3V6M3,11H21V13H3V11M3,16H21V18H3V16Z" />
    </symbol>

    <symbol id="right" viewBox="0 0 24 24">
      <path d="M8.59,16.58L13.17,12L8.59,7.41L10,6L16,12L10,18L8.59,16.58Z" />
    </symbol>

    <symbol id="info" viewBox="0 0 24 24">
      <path d="M11,9H13V7H11M12,20C7.59,20 4,16.41 4,12C4,7.59 7.59,4 12,4C16.41,4 20,7.59 20,12C20,16.41 16.41,20 12,20M12,2A10,10 0 0,0 2,12A10,10 0 0,0 12,22A10,10 0 0,0 22,12A10,10 0 0,0 12,2M11,17H13V11H11V17Z" />
    </symbol>

    <symbol id="left" viewBox="0 0 24 24">
      <path d="M15.41,16.58L10.83,12L15.41,7.41L14,6L8,12L14,18L15.41,16.58Z" />
    </symbol>

    <symbol id="mic" viewBox="0 0 24 24">
      <path d="M17.3,11C17.3,14 14.76,16.1 12,16.1C9.24,16.1 6.7,14 6.7,11H5C5,14.41 7.72,17.23 11,17.72V21H13V17.72C16.28,17.23 19,14.41 19,11M10.8,4.9C10.8,4.24 11.34,3.7 12,3.7C12.66,3.7 13.2,4.24 13.2,4.9L13.19,11.1C13.19,11.76 12.66,12.3 12,12.3C11.34,12.3 10.8,11.76 10.8,11.1M12,14A3,3 0 0,0 15,11V5A3,3 0 0,0 12,2A3,3 0 0,0 9,5V11A3,3 0 0,0 12,14Z" />
    </symbol>

    <symbol id="diamond" viewBox="0 0 24 24">
      <path d="M16,9H19L14,16M10,9H14L12,17M5,9H8L10,16M15,4H17L19,7H16M11,4H13L14,7H10M7,4H9L8,7H5M6,2L2,8L12,22L22,8L18,2H6Z" />
    </symbol>

    <symbol id="error" viewBox="0 0 24 24">
      <path d="M11,15H13V17H11V15M11,7H13V13H11V7M12,2C6.47,2 2,6.5 2,12A10,10 0 0,0 12,22A10,10 0 0,0 22,12A10,10 0 0,0 12,2M12,20A8,8 0 0,1 4,12A8,8 0 0,1 12,4A8,8 0 0,1 20,12A8,8 0 0,1 12,20Z" />
    </symbol>

    <symbol id="user" viewBox="0 0 24 24">
      <path d="M12,4A4,4 0 0,1 16,8A4,4 0 0,1 12,12A4,4 0 0,1 8,8A4,4 0 0,1 12,4M12,6A2,2 0 0,0 10,8A2,2 0 0,0 12,10A2,2 0 0,0 14,8A2,2 0 0,0 12,6M12,13C14.67,13 20,14.33 20,17V20H4V17C4,14.33 9.33,13 12,13M12,14.9C9.03,14.9 5.9,16.36 5.9,17V18.1H18.1V17C18.1,16.36 14.97,14.9 12,14.9Z" />
    </symbol>

    <symbol id="github" viewBox="0 0 24 24">
      <path d="M12,2A10,10 0 0,0 2,12C2,16.42 4.87,20.17 8.84,21.5C9.34,21.58 9.5,21.27 9.5,21C9.5,20.77 9.5,20.14 9.5,19.31C6.73,19.91 6.14,17.97 6.14,17.97C5.68,16.81 5.03,16.5 5.03,16.5C4.12,15.88 5.1,15.9 5.1,15.9C6.1,15.97 6.63,16.93 6.63,16.93C7.5,18.45 8.97,18 9.54,17.76C9.63,17.11 9.89,16.67 10.17,16.42C7.95,16.17 5.62,15.31 5.62,11.5C5.62,10.39 6,9.5 6.65,8.79C6.55,8.54 6.2,7.5 6.75,6.15C6.75,6.15 7.59,5.88 9.5,7.17C10.29,6.95 11.15,6.84 12,6.84C12.85,6.84 13.71,6.95 14.5,7.17C16.41,5.88 17.25,6.15 17.25,6.15C17.8,7.5 17.45,8.54 17.35,8.79C18,9.5 18.38,10.39 18.38,11.5C18.38,15.32 16.04,16.16 13.81,16.41C14.17,16.72 14.5,17.33 14.5,18.26C14.5,19.6 14.5,20.68 14.5,21C14.5,21.27 14.66,21.59 15.17,21.5C19.14,20.16 22,16.42 22,12A10,10 0 0,0 12,2Z" />
    </symbol>

    <symbol id="npm" viewBox="0 0 24 24">
      <path d="M4,10V14H6V11H7V14H8V10H4M9,10V15H11V14H13V10H9M12,11V13H11V11H12M14,10V14H16V11H17V14H18V11H19V14H20V10H14M3,9H21V15H12V16H8V15H3V9Z" />
    </symbol>





  </svg>
</svg>
